<svg width="47" height="53" viewBox="0 0 47 53" fill="none" xmlns="http://www.w3.org/2000/svg">
<g clip-path="url(#clip0_27_238)">
<g clip-path="url(#clip1_27_238)">
<path d="M15.9291 44.8576C15.6023 46.1553 15.5808 47.5114 15.8664 48.8189C5.83583 47.3977 0 40.2957 0 33.3704V31.4074C0 29.8456 0.618972 28.3477 1.72075 27.2433C2.82252 26.139 4.31685 25.5185 5.875 25.5185H29.4651C29.5238 26.9122 29.9625 28.2706 30.7497 29.4444H5.875C5.35562 29.4444 4.85751 29.6513 4.49025 30.0194C4.12299 30.3875 3.91667 30.8868 3.91667 31.4074V33.3704C3.91667 38.2896 8.178 43.5778 15.9291 44.8576ZM19.5833 0C22.4399 0 25.1795 1.13746 27.1995 3.16216C29.2194 5.18686 30.3542 7.93294 30.3542 10.7963C30.3542 13.6597 29.2194 16.4057 27.1995 18.4304C25.1795 20.4551 22.4399 21.5926 19.5833 21.5926C16.7267 21.5926 13.9871 20.4551 11.9672 18.4304C9.94728 16.4057 8.8125 13.6597 8.8125 10.7963C8.8125 7.93294 9.94728 5.18686 11.9672 3.16216C13.9871 1.13746 16.7267 0 19.5833 0ZM19.5833 3.92593C17.7655 3.92593 16.0221 4.64977 14.7367 5.93821C13.4513 7.22666 12.7292 8.97416 12.7292 10.7963C12.7292 12.6184 13.4513 14.3659 14.7367 15.6544C16.0221 16.9428 17.7655 17.6667 19.5833 17.6667C21.4012 17.6667 23.1446 16.9428 24.43 15.6544C25.7154 14.3659 26.4375 12.6184 26.4375 10.7963C26.4375 8.97416 25.7154 7.22666 24.43 5.93821C23.1446 4.64977 21.4012 3.92593 19.5833 3.92593ZM33.6207 23.8736L34.7291 20.9291C35.7396 18.2595 38.8886 16.9404 41.5441 18.075L43.0637 18.7267C44.9163 19.5197 46.4517 20.9566 46.7728 22.8881C48.5627 33.5863 39.2998 48.8032 28.6387 52.6859C26.7117 53.3847 24.628 52.843 22.9791 51.7201L21.6239 50.7976C21.0675 50.4219 20.5991 49.9297 20.2509 49.355C19.9027 48.7803 19.683 48.1367 19.6071 47.4686C19.5311 46.8005 19.6007 46.1239 19.8109 45.4854C20.0212 44.8468 20.3671 44.2616 20.8249 43.7701L22.9595 41.3871C23.4609 40.8336 24.1006 40.4243 24.8125 40.2014C25.5244 39.9785 26.2828 39.9501 27.0093 40.119L31.8072 41.2576C35.6116 38.8758 37.6509 35.5257 37.9251 31.2072L34.4862 27.8309C33.9726 27.3278 33.6171 26.6851 33.4633 25.9819C33.3095 25.2788 33.3642 24.5459 33.6207 23.8736Z" fill="#1F878D"/>
</g>
</g>
<defs>
<clipPath id="clip0_27_238">
<rect width="47" height="53" fill="white"/>
</clipPath>
<clipPath id="clip1_27_238">
<rect width="47" height="53" fill="white"/>
</clipPath>
</defs>
</svg>
