<svg width="39" height="39" viewBox="0 0 39 39" fill="none" xmlns="http://www.w3.org/2000/svg">
<g clip-path="url(#clip0_18_40)">
<path d="M16.0569 3.70717C16.9326 0.0976111 22.0674 0.0976111 22.9431 3.70717C23.0744 4.24942 23.332 4.75299 23.6948 5.17689C24.0576 5.60079 24.5153 5.93303 25.0308 6.14659C25.5462 6.36014 26.1048 6.44897 26.6611 6.40584C27.2174 6.36271 27.7556 6.18884 28.232 5.89839C31.4037 3.96617 35.0359 7.59628 33.1037 10.7701C32.8136 11.2462 32.64 11.7841 32.597 12.34C32.554 12.8959 32.6427 13.4541 32.856 13.9693C33.0693 14.4844 33.4012 14.942 33.8246 15.3047C34.248 15.6675 34.7511 15.9252 35.2928 16.0569C38.9024 16.9326 38.9024 22.0674 35.2928 22.9431C34.7506 23.0744 34.247 23.332 33.8231 23.6948C33.3992 24.0576 33.067 24.5153 32.8534 25.0308C32.6399 25.5462 32.551 26.1048 32.5942 26.6611C32.6373 27.2174 32.8112 27.7556 33.1016 28.232C35.0338 31.4037 31.4037 35.0359 28.2299 33.1037C27.7538 32.8136 27.2159 32.64 26.66 32.597C26.1041 32.554 25.5459 32.6427 25.0307 32.856C24.5156 33.0693 24.058 33.4012 23.6953 33.8246C23.3325 34.248 23.0748 34.7511 22.9431 35.2928C22.0674 38.9024 16.9326 38.9024 16.0569 35.2928C15.9256 34.7506 15.668 34.247 15.3052 33.8231C14.9424 33.3992 14.4847 33.067 13.9692 32.8534C13.4538 32.6399 12.8952 32.551 12.3389 32.5942C11.7826 32.6373 11.2444 32.8112 10.768 33.1016C7.59628 35.0338 3.96411 31.4037 5.89633 28.2299C6.18637 27.7538 6.35997 27.2159 6.40299 26.66C6.44602 26.1041 6.35728 25.5459 6.14397 25.0307C5.93066 24.5156 5.59881 24.058 5.17539 23.6953C4.75198 23.3325 4.24894 23.0748 3.70717 22.9431C0.0976111 22.0674 0.0976111 16.9326 3.70717 16.0569C4.24942 15.9256 4.75299 15.668 5.17689 15.3052C5.60079 14.9424 5.93303 14.4847 6.14659 13.9692C6.36014 13.4538 6.44897 12.8952 6.40584 12.3389C6.36271 11.7826 6.18884 11.2444 5.89839 10.768C3.96617 7.59628 7.59628 3.96411 10.7701 5.89633C12.8256 7.14611 15.4896 6.04022 16.0569 3.70717Z" stroke="#1F878D" stroke-width="2" stroke-linecap="round" stroke-linejoin="round"/>
<path d="M13.3333 19.5C13.3333 21.1355 13.983 22.704 15.1395 23.8605C16.296 25.0169 17.8645 25.6666 19.5 25.6666C21.1355 25.6666 22.704 25.0169 23.8605 23.8605C25.017 22.704 25.6667 21.1355 25.6667 19.5C25.6667 17.8645 25.017 16.296 23.8605 15.1395C22.704 13.983 21.1355 13.3333 19.5 13.3333C17.8645 13.3333 16.296 13.983 15.1395 15.1395C13.983 16.296 13.3333 17.8645 13.3333 19.5Z" stroke="#1F878D" stroke-width="2" stroke-linecap="round" stroke-linejoin="round"/>
</g>
<defs>
<clipPath id="clip0_18_40">
<rect width="39" height="39" fill="white"/>
</clipPath>
</defs>
</svg>
