<svg width="37" height="37" viewBox="0 0 37 37" fill="none" xmlns="http://www.w3.org/2000/svg">
<g clip-path="url(#clip0_226_456)">
<path d="M25 12.8125C27.1661 15.7017 27.1661 21.2982 25 24.1875M29.875 7.12499C36.3555 13.313 36.3945 23.7276 29.875 29.875M2.25 23.3084V13.69C2.25 12.7572 2.978 12 3.875 12H9.70225C9.91729 11.9992 10.13 11.9549 10.3274 11.8697C10.5249 11.7846 10.703 11.6603 10.8511 11.5044L15.7261 5.99887C16.7499 4.93287 18.5 5.68849 18.5 7.19487V29.8051C18.5 31.3229 16.7288 32.072 15.7115 30.9849L10.8528 25.5102C10.7042 25.3499 10.5243 25.2218 10.3241 25.1341C10.1239 25.0463 9.90782 25.0006 9.68925 25H3.875C2.978 25 2.25 24.2427 2.25 23.3084Z" stroke="#F4FDFD" stroke-width="2" stroke-linecap="round" stroke-linejoin="round"/>
</g>
<defs>
<clipPath id="clip0_226_456">
<rect width="37" height="37" fill="white"/>
</clipPath>
</defs>
</svg>
